<?xml version="1.0" encoding="UTF-8"?>
<svg id="" data-name="" xmlns="http://www.w3.org/2000/svg" viewBox="0 0 1000 1000">
  <defs>
    <style>
      .cls-1 {
        fill: #fff;
        stroke: #fff;
        stroke-miterlimit: 10;
        stroke-width: 30px;
      }

      .cls-2 {
        fill: #39f;
        stroke-width: 0px;
      }
    </style>
  </defs>
  <g id="" data-name="">
    <rect class="cls-2" width="1000" height="1000" rx="175.78" ry="175.78"/>
    <g>
      <path class="cls-1" d="m194.75,592.99c1.57,7.26,11.88,7.42,13.66.21,5.73-23.22,11.57-45.37,17.55-66.45,8.5-30,19.75-69,33.75-117l12.5-42c3.66-12,5.66-21.83,6-29.5,0-3.33,1.75-5.83,5.25-7.5,3.5-1.66,7.91-2.5,13.25-2.5,6.33,0,12.33,1.09,18,3.25,5.66,2.17,8.66,4.92,9,8.25.66,2.98,1.98,8.75,3.96,17.31.03.12.06.25.1.38,23.01,78.9,43.6,158.47,61.79,238.71,1.61,7.12,11.67,7.34,13.6.3,24.43-89.37,45.29-161.93,62.56-217.69,4.66-15.33,8.83-30.33,12.5-45l3-11c1-3.33,4-5,9-5,6,0,12.5,2,19.5,6s10.5,8.34,10.5,13c0,1-.17,1.84-.5,2.5-8.67,20-20.09,51.5-34.25,94.5-14.17,43-34.42,109.67-60.75,200-1,4-2,7.84-3,11.5-1,3.67-1.84,7.17-2.5,10.5l-3,14c-1,4-2.84,7.08-5.5,9.25-2.67,2.16-5.84,3.25-9.5,3.25-6.34,0-12.59-2.84-18.75-8.5-6.17-5.66-10.42-13.5-12.75-23.5-23.6-100.86-43.79-182.28-60.6-244.26-1.84-6.8-11.44-6.94-13.47-.19-6.6,21.84-13.91,46.91-21.92,75.2-11,38.84-18.5,65.25-22.5,79.25l-20.5,74c-1,3.34-2.17,8-3.5,14-1.67,7-3.67,14.34-6,22-2.67,7.66-7.5,11.5-14.5,11.5-6,0-11.92-2.84-17.75-8.5-5.84-5.66-9.92-13.33-12.25-23-15.67-65.33-32.17-129.75-49.5-193.25-17.34-63.5-30.34-105.41-39-125.75-.34-.66-.5-1.5-.5-2.5,0-2.66,1.66-4.66,5-6,3.33-1.33,7.5-2,12.5-2,6,0,11.33.92,16,2.75,4.66,1.84,7.33,4.25,8,7.25l7,26.5c18.69,63.03,38.21,141.61,58.55,235.74Z"/>
      <path class="cls-1" d="m586.84,592.99c1.57,7.26,11.88,7.42,13.66.21,5.73-23.22,11.57-45.37,17.55-66.45,8.5-30,19.75-69,33.75-117l12.5-42c3.66-12,5.66-21.83,6-29.5,0-3.33,1.75-5.83,5.25-7.5,3.5-1.66,7.91-2.5,13.25-2.5,6.33,0,12.33,1.09,18,3.25,5.66,2.17,8.66,4.92,9,8.25.66,2.98,1.98,8.75,3.96,17.31.03.12.06.25.1.38,23.01,78.9,43.6,158.47,61.79,238.71,1.61,7.12,11.67,7.34,13.6.3,24.43-89.37,45.29-161.93,62.56-217.69,4.66-15.33,8.83-30.33,12.5-45l3-11c1-3.33,4-5,9-5,6,0,12.5,2,19.5,6s10.5,8.34,10.5,13c0,1-.17,1.84-.5,2.5-8.67,20-20.09,51.5-34.25,94.5-14.17,43-34.42,109.67-60.75,200-1,4-2,7.84-3,11.5-1,3.67-1.84,7.17-2.5,10.5l-3,14c-1,4-2.84,7.08-5.5,9.25-2.67,2.16-5.84,3.25-9.5,3.25-6.34,0-12.59-2.84-18.75-8.5-6.17-5.66-10.42-13.5-12.75-23.5-23.6-100.86-43.79-182.28-60.6-244.26-1.84-6.8-11.44-6.94-13.47-.19-6.6,21.84-13.91,46.91-21.92,75.2-11,38.84-18.5,65.25-22.5,79.25l-20.5,74c-1,3.34-2.17,8-3.5,14-1.67,7-3.67,14.34-6,22-2.67,7.66-7.5,11.5-14.5,11.5-6,0-11.92-2.84-17.75-8.5-5.84-5.66-9.92-13.33-12.25-23-15.67-65.33-32.17-129.75-49.5-193.25-17.34-63.5-30.34-105.41-39-125.75-.34-.66-.5-1.5-.5-2.5,0-2.66,1.66-4.66,5-6,3.33-1.33,7.5-2,12.5-2,6,0,11.33.92,16,2.75,4.66,1.84,7.33,4.25,8,7.25l7,26.5c18.69,63.03,38.21,141.61,58.55,235.74Z"/>
    </g>
  </g>
</svg>