<?xml version="1.0" standalone="no"?>
<!DOCTYPE svg PUBLIC "-//W3C//DTD SVG 20010904//EN"
 "http://www.w3.org/TR/2001/REC-SVG-20010904/DTD/svg10.dtd">
<svg version="1.0" xmlns="http://www.w3.org/2000/svg"
 width="700.000000pt" height="700.000000pt" viewBox="0 0 700.000000 700.000000"
 preserveAspectRatio="xMidYMid meet">
<metadata>
Created by potrace 1.14, written by Peter Selinger 2001-2017
</metadata>
<g transform="translate(0.000000,700.000000) scale(0.100000,-0.100000)"
fill="#000000" stroke="none">
<path d="M1109 6996 c-2 -2 -29 -7 -60 -10 -158 -17 -395 -114 -545 -224 -263
-193 -446 -495 -491 -814 -10 -70 -10 -4814 0 -4895 29 -234 159 -498 333
-678 143 -147 366 -282 539 -326 22 -6 67 -18 100 -27 55 -15 275 -16 2480
-19 1565 -1 2438 1 2470 8 28 5 64 11 80 14 136 19 348 114 485 216 270 200
433 476 490 829 11 68 7 4838 -4 4899 -22 119 -71 263 -124 366 -141 271 -378
481 -666 589 -38 14 -78 28 -90 31 -11 2 -32 7 -46 10 -14 3 -38 9 -55 11 -16
3 -50 10 -75 14 -43 9 -4812 14 -4821 6z"/>
</g>
</svg>
