<svg width="425" height="691" xmlns="http://www.w3.org/2000/svg" xmlns:xlink="http://www.w3.org/1999/xlink" xml:space="preserve" overflow="hidden"><g transform="translate(-509 -14)"><path d="M509.5 27.8179C509.5 20.4626 515.463 14.5001 522.818 14.5001L920.182 14.5001C927.537 14.5001 933.5 20.4626 933.5 27.8179L933.5 691.182C933.5 698.537 927.537 704.5 920.182 704.5L522.818 704.5C515.463 704.5 509.5 698.537 509.5 691.182Z" stroke="#000000" stroke-width="1.33333" stroke-miterlimit="8" fill="#F2F2F2" fill-rule="evenodd"/><path d="M807.5 569.5 825.5 569.5 825.5 587.5 807.5 587.5Z" stroke="#000000" stroke-width="1.33333" stroke-miterlimit="8" fill="#7F7F7F"/><text font-family="Calibri,Calibri_MSFontService,sans-serif" font-weight="400" font-size="24" transform="translate(835.006 585)">System</text><path d="M807.5 612.5 825.5 612.5 825.5 631.5 807.5 631.5Z" stroke="#000000" stroke-width="1.33333" stroke-miterlimit="8" fill="#2F5597"/><text font-family="Calibri,Calibri_MSFontService,sans-serif" font-weight="400" font-size="24" transform="translate(835.006 629)">Hugo</text><path d="M807.5 656.5 825.5 656.5 825.5 675.5 807.5 675.5Z" stroke="#000000" stroke-width="1.33333" stroke-miterlimit="8" fill="#548235"/><text font-family="Calibri,Calibri_MSFontService,sans-serif" font-weight="400" font-size="24" transform="translate(835.006 673)">Git</text><path d="M658.833 71.5001 658.833 95.2841 658.167 95.2841 658.167 71.5001ZM662.5 93.9507 658.5 101.951 654.5 93.9508Z"/><path d="M658.833 139.5 658.833 163.284 658.167 163.284 658.167 139.5ZM662.5 161.951 658.5 169.951 654.5 161.951Z"/><path d="M658.833 617.5 658.833 641.284 658.167 641.284 658.167 617.5ZM662.5 639.951 658.5 647.951 654.5 639.951Z"/><path d="M658.833 207.5 658.833 231.284 658.167 231.284 658.167 207.5ZM662.5 229.951 658.5 237.951 654.5 229.951Z"/><path d="M658.833 276.5 658.833 300.284 658.167 300.284 658.167 276.5ZM662.5 298.951 658.5 306.951 654.5 298.951Z"/><path d="M658.833 344.5 658.833 368.284 658.167 368.284 658.167 344.5ZM662.5 366.951 658.5 374.951 654.5 366.951Z"/><path d="M658.833 412.5 658.833 436.284 658.167 436.284 658.167 412.5ZM662.5 434.951 658.5 442.951 654.5 434.951Z"/><path d="M658.833 480.5 658.833 504.284 658.167 504.284 658.167 480.5ZM662.5 502.951 658.5 510.951 654.5 502.951Z"/><path d="M0.333333-1.14925e-06 0.333415 23.7843-0.333251 23.7843-0.333333 1.14925e-06ZM4.00008 22.4509 0.000104987 30.4509-3.99992 22.4509Z" transform="matrix(-1 0 0 1 658.5 549.5)"/><path d="M528.5 46.9058C528.5 39.502 534.502 33.5001 541.906 33.5001L775.094 33.5001C782.498 33.5001 788.5 39.502 788.5 46.9058L788.5 58.0943C788.5 65.4981 782.498 71.5001 775.094 71.5001L541.906 71.5001C534.502 71.5001 528.5 65.4981 528.5 58.0943Z" stroke="#000000" stroke-width="1.33333" stroke-miterlimit="8" fill="#7F7F7F" fill-rule="evenodd"/><text fill="#FFFFFF" font-family="Calibri,Calibri_MSFontService,sans-serif" font-weight="400" font-size="24" transform="translate(600.169 60)">Install Hugo</text><path d="M528.5 114.906C528.5 107.502 534.502 101.5 541.906 101.5L775.094 101.5C782.498 101.5 788.5 107.502 788.5 114.906L788.5 126.094C788.5 133.498 782.498 139.5 775.094 139.5L541.906 139.5C534.502 139.5 528.5 133.498 528.5 126.094Z" stroke="#000000" stroke-width="1.33333" stroke-miterlimit="8" fill="#7F7F7F" fill-rule="evenodd"/><text fill="#FFFFFF" font-family="Calibri,Calibri_MSFontService,sans-serif" font-weight="400" font-size="24" transform="translate(611.586 128)">Install Git</text><path d="M528.5 183.553C528.5 176.344 534.344 170.5 541.553 170.5L775.447 170.5C782.656 170.5 788.5 176.344 788.5 183.553L788.5 194.447C788.5 201.656 782.656 207.5 775.447 207.5L541.553 207.5C534.344 207.5 528.5 201.656 528.5 194.447Z" stroke="#000000" stroke-width="1.33333" stroke-miterlimit="8" fill="#2F5597" fill-rule="evenodd"/><text fill="#FFFFFF" font-family="Calibri,Calibri_MSFontService,sans-serif" font-weight="400" font-size="24" transform="translate(590.726 196)">Start new site</text><path d="M528.5 251.906C528.5 244.502 534.502 238.5 541.906 238.5L775.094 238.5C782.498 238.5 788.5 244.502 788.5 251.906L788.5 263.094C788.5 270.498 782.498 276.5 775.094 276.5L541.906 276.5C534.502 276.5 528.5 270.498 528.5 263.094Z" stroke="#000000" stroke-width="1.33333" stroke-miterlimit="8" fill="#548235" fill-rule="evenodd"/><text fill="#FFFFFF" font-family="Calibri,Calibri_MSFontService,sans-serif" font-weight="400" font-size="24" transform="translate(600.962 264)">Init git repo</text><path d="M528.5 319.906C528.5 312.502 534.502 306.5 541.906 306.5L775.094 306.5C782.498 306.5 788.5 312.502 788.5 319.906L788.5 331.094C788.5 338.498 782.498 344.5 775.094 344.5L541.906 344.5C534.502 344.5 528.5 338.498 528.5 331.094Z" stroke="#000000" stroke-width="1.33333" stroke-miterlimit="8" fill="#2F5597" fill-rule="evenodd"/><text fill="#FFFFFF" font-family="Calibri,Calibri_MSFontService,sans-serif" font-weight="400" font-size="24" transform="translate(594.002 333)">Install theme</text><path d="M528.5 524.906C528.5 517.502 534.502 511.5 541.906 511.5L775.094 511.5C782.498 511.5 788.5 517.502 788.5 524.906L788.5 536.094C788.5 543.498 782.498 549.5 775.094 549.5L541.906 549.5C534.502 549.5 528.5 543.498 528.5 536.094Z" stroke="#000000" stroke-width="1.33333" stroke-miterlimit="8" fill="#2F5597" fill-rule="evenodd"/><text fill="#FFFFFF" font-family="Calibri,Calibri_MSFontService,sans-serif" font-weight="400" font-size="24" transform="translate(605.312 537)">Run server</text><path d="M528.5 592.906C528.5 585.502 534.502 579.5 541.906 579.5L775.094 579.5C782.498 579.5 788.5 585.502 788.5 592.906L788.5 604.094C788.5 611.498 782.498 617.5 775.094 617.5L541.906 617.5C534.502 617.5 528.5 611.498 528.5 604.094Z" stroke="#000000" stroke-width="1.33333" stroke-miterlimit="8" fill="#548235" fill-rule="evenodd"/><text fill="#FFFFFF" font-family="Calibri,Calibri_MSFontService,sans-serif" font-weight="400" font-size="24" transform="translate(557.309 606)">Push local to remote</text><path d="M528.5 456.553C528.5 449.344 534.344 443.5 541.553 443.5L775.447 443.5C782.656 443.5 788.5 449.344 788.5 456.553L788.5 467.447C788.5 474.656 782.656 480.5 775.447 480.5L541.553 480.5C534.344 480.5 528.5 474.656 528.5 467.447Z" stroke="#000000" stroke-width="1.33333" stroke-miterlimit="8" fill="#2F5597" fill-rule="evenodd"/><text fill="#FFFFFF" font-family="Calibri,Calibri_MSFontService,sans-serif" font-weight="400" font-size="24" transform="translate(571.079 469)">Configure the site</text><path d="M528.5 387.906C528.5 380.502 534.502 374.5 541.906 374.5L775.094 374.5C782.498 374.5 788.5 380.502 788.5 387.906L788.5 399.094C788.5 406.498 782.498 412.5 775.094 412.5L541.906 412.5C534.502 412.5 528.5 406.498 528.5 399.094Z" stroke="#000000" stroke-width="1.33333" stroke-miterlimit="8" fill="#2F5597" fill-rule="evenodd"/><text fill="#FFFFFF" font-family="Calibri,Calibri_MSFontService,sans-serif" font-weight="400" font-size="24" transform="translate(586.812 401)">Start new post</text><path d="M528.5 660.906C528.5 653.502 534.502 647.5 541.906 647.5L775.094 647.5C782.498 647.5 788.5 653.502 788.5 660.906L788.5 672.094C788.5 679.498 782.498 685.5 775.094 685.5L541.906 685.5C534.502 685.5 528.5 679.498 528.5 672.094Z" stroke="#000000" stroke-width="1.33333" stroke-miterlimit="8" fill="#2F5597" fill-rule="evenodd"/><text fill="#FFFFFF" font-family="Calibri,Calibri_MSFontService,sans-serif" font-weight="400" font-size="24" transform="translate(544.852 674)">Build </text><text fill="#FFFFFF" font-family="Calibri,Calibri_MSFontService,sans-serif" font-weight="400" font-size="24" transform="translate(600.852 674)">&amp; </text><text fill="#FFFFFF" font-family="Calibri,Calibri_MSFontService,sans-serif" font-weight="400" font-size="24" transform="translate(621.852 674)">Publish the site</text></g></svg>